<?xml version="1.0" standalone="no"?>
<!DOCTYPE svg PUBLIC "-//W3C//DTD SVG 20010904//EN"
 "http://www.w3.org/TR/2001/REC-SVG-20010904/DTD/svg10.dtd">
<svg version="1.0" xmlns="http://www.w3.org/2000/svg"
 width="1200.000000pt" height="1538.000000pt" viewBox="0 0 1200.000000 1538.000000"
 preserveAspectRatio="xMidYMid meet">

<g transform="translate(0.000000,1538.000000) scale(0.100000,-0.100000)"
fill="#000000" stroke="none">
<path d="M5740 15374 c-1014 -71 -1778 -279 -2575 -701 -316 -167 -731 -448
-1025 -693 -317 -263 -674 -641 -931 -984 -659 -879 -1048 -1851 -1168 -2921
-116 -1027 32 -2074 424 -3004 155 -368 421 -836 670 -1181 304 -422 707 -847
1105 -1166 152 -121 479 -347 680 -469 742 -449 1629 -737 2522 -820 558 -52
1227 -13 1765 101 314 67 851 236 1127 355 537 232 1045 546 1517 937 113 93
419 391 563 547 106 116 141 158 339 409 223 282 480 711 666 1111 742 1596
729 3442 -36 5068 -217 463 -578 1017 -883 1356 -551 614 -1156 1083 -1833
1423 -665 333 -1400 542 -2161 613 -154 15 -650 27 -766 19z m740 -100 c868
-73 1686 -330 2447 -767 464 -266 784 -515 1219 -944 265 -261 417 -435 602
-690 584 -803 939 -1675 1076 -2648 145 -1023 20 -2064 -365 -3035 -117 -295
-389 -806 -591 -1109 -271 -406 -707 -882 -1128 -1231 -226 -187 -562 -422
-787 -552 -347 -200 -799 -405 -1143 -518 -719 -237 -1613 -337 -2370 -265
-1063 101 -2114 502 -2945 1122 -648 483 -1185 1073 -1580 1733 -116 194 -327
623 -413 841 -608 1531 -551 3238 156 4731 253 534 604 1040 1055 1522 106
113 427 406 607 553 597 488 1363 874 2140 1077 389 102 931 182 1360 200 143
6 475 -4 660 -20z"/>
<path d="M5708 14971 c-89 -61 -120 -104 -126 -176 -5 -60 15 -113 91 -239 53
-89 67 -120 67 -152 0 -39 -15 -59 -90 -119 -129 -103 -149 -161 -159 -461 -5
-121 -12 -228 -18 -238 -8 -15 -11 -14 -22 10 -6 15 -19 81 -27 147 -17 139
-41 203 -95 251 -40 37 -99 72 -99 59 0 -5 7 -46 15 -93 30 -169 15 -279 -72
-538 -86 -257 -99 -349 -68 -480 40 -171 202 -369 378 -463 43 -23 56 -35 53
-47 -15 -46 -26 -132 -26 -195 l0 -69 -32 6 c-177 35 -542 66 -788 66 -602 0
-1053 -124 -1507 -413 l-122 -78 35 -80 c18 -45 34 -82 34 -83 0 -2 -47 -32
-105 -67 -58 -35 -105 -68 -105 -74 0 -5 9 -30 20 -54 11 -24 20 -48 20 -55 0
-6 -33 -29 -74 -51 l-73 -40 612 -1200 c766 -1500 844 -1652 862 -1667 11 -9
29 -4 86 22 138 63 261 110 441 169 627 206 1120 237 1733 110 262 -54 513
-136 916 -297 l247 -100 251 507 c139 278 462 927 720 1442 l468 936 -75 52
c-41 29 -74 56 -74 62 0 5 11 31 24 58 l25 48 -109 72 -108 73 34 81 33 82
-42 39 c-55 50 -182 140 -289 205 -246 148 -572 259 -921 313 -122 18 -183 22
-427 22 -325 0 -407 -9 -812 -81 l-28 -5 0 123 1 124 53 32 c163 99 290 262
341 438 21 71 23 190 5 265 -7 30 -35 109 -62 175 -200 487 -202 492 -201 667
0 121 -1 127 -19 117 -31 -17 -47 -51 -62 -142 -9 -48 -22 -100 -31 -116 -17
-34 -56 -65 -66 -53 -13 13 -61 245 -65 317 -3 39 1 107 9 153 l14 82 -26 -16
c-76 -48 -130 -122 -183 -249 l-37 -90 -1 61 c0 34 5 86 10 115 47 243 29 295
-151 440 -153 122 -188 167 -189 237 0 50 11 75 53 120 44 46 20 40 -65 -17z
m328 -1148 c74 -132 104 -208 104 -265 0 -29 -11 -82 -27 -126 -26 -72 -28
-86 -25 -217 l2 -140 -27 41 c-45 66 -107 160 -120 180 -9 16 -12 16 -16 4
-44 -141 -80 -245 -97 -284 l-23 -50 -18 35 c-34 63 -59 159 -59 228 0 71 21
139 98 326 52 127 70 195 84 324 l12 104 31 -36 c18 -20 54 -76 81 -124z
m-740 -395 c-1 -128 2 -149 23 -203 79 -204 92 -274 72 -391 -19 -104 -23
-106 -37 -16 -19 116 -55 182 -99 182 -83 0 -84 206 -2 448 22 67 42 122 43
122 0 0 1 -64 0 -142z m648 -418 c43 -364 55 -691 37 -985 -12 -177 -32 -340
-45 -353 -10 -9 -147 90 -208 150 -121 121 -179 325 -145 513 20 110 45 171
129 316 74 130 146 274 188 377 27 67 34 64 44 -18z m152 -32 c170 -255 236
-466 220 -701 -12 -173 -61 -316 -150 -441 -44 -62 -134 -152 -142 -143 -3 3
5 110 17 238 28 301 23 730 -10 949 -22 146 -26 214 -12 206 5 -3 39 -52 77
-108z m1484 -794 c416 -51 835 -205 1097 -404 43 -32 88 -67 100 -77 l22 -18
-313 -780 c-525 -1311 -978 -2415 -991 -2415 -7 0 -37 11 -67 24 -100 44 -411
145 -573 185 -347 87 -596 120 -950 128 -475 11 -755 -33 -1247 -196 -207 -69
-209 -69 -218 -48 -4 12 -294 721 -644 1576 -350 854 -636 1557 -636 1561 0 4
44 36 98 71 318 207 704 330 1167 370 249 21 719 -4 1018 -54 l68 -12 27 -80
c39 -111 95 -195 184 -272 l37 -32 -47 -6 c-26 -3 -54 -7 -62 -8 -12 -2 -16
-25 -20 -112 l-5 -109 -106 -47 c-59 -25 -141 -67 -182 -92 l-76 -46 -74 79
c-41 44 -77 80 -81 80 -10 0 -196 -163 -196 -172 0 -4 34 -45 75 -91 41 -47
75 -88 75 -93 0 -4 -29 -56 -64 -114 -78 -127 -119 -227 -142 -343 l-17 -87
-112 0 c-132 0 -123 11 -126 -143 -2 -129 -1 -130 135 -135 96 -4 105 -6 110
-26 3 -11 18 -68 32 -126 31 -125 67 -208 135 -312 60 -90 60 -89 -36 -173
-36 -32 -65 -64 -65 -72 0 -7 37 -53 83 -100 99 -102 99 -102 198 -2 l67 68
53 -33 c30 -17 74 -45 99 -61 25 -16 104 -49 175 -74 l130 -46 6 -190 c8 -229
6 -210 25 -229 22 -22 375 -24 393 -2 14 17 30 158 31 271 1 44 4 98 8 119 7
38 9 40 64 52 81 19 167 57 279 125 54 32 103 59 108 59 6 0 44 -34 85 -75 62
-62 79 -74 93 -66 10 5 54 46 98 90 61 62 77 85 70 95 -6 8 -40 48 -78 89
l-67 75 54 86 c66 105 111 210 138 324 34 144 22 132 141 132 67 0 107 4 115
12 17 17 17 244 0 255 -7 4 -59 8 -115 8 -56 1 -105 4 -109 7 -3 4 -13 44 -20
90 -20 110 -66 220 -147 347 l-66 105 80 76 c43 42 79 82 79 88 0 25 -156 182
-181 182 -7 0 -48 -35 -91 -77 l-77 -77 -58 39 c-85 56 -216 123 -258 131
l-36 6 6 98 c10 136 8 140 -71 140 -35 0 -64 4 -64 9 0 5 25 39 55 76 73 88
102 139 136 238 15 44 34 84 41 88 37 21 474 80 683 93 107 6 387 -5 515 -20z
m-4211 -1172 c112 -273 357 -868 544 -1322 484 -1173 489 -1187 458 -1154 -5
5 -156 320 -334 699 -179 380 -398 843 -487 1030 -352 739 -545 1154 -538
1159 10 8 144 85 148 85 3 1 97 -223 209 -497z m5571 343 c0 -15 -1121 -2484
-1240 -2733 -46 -95 -85 -170 -87 -168 -2 2 262 674 588 1492 325 819 594
1494 596 1501 6 15 143 -74 143 -92z m-5435 -1181 c275 -597 501 -1091 503
-1097 11 -38 -356 670 -800 1547 -164 324 -298 590 -298 592 0 5 74 43 85 44
6 0 235 -489 510 -1086z m5511 1001 l44 -26 -394 -787 c-216 -433 -509 -1020
-651 -1305 -141 -284 -261 -520 -266 -523 -13 -7 -2 19 96 232 106 230 1046
2284 1086 2372 15 34 31 62 35 62 4 0 27 -11 50 -25z m-3366 -52 c0 -21 11
-335 25 -698 14 -363 25 -688 25 -723 0 -75 3 -75 -127 -11 -198 98 -355 293
-415 517 -29 108 -29 286 1 397 47 180 158 343 314 461 55 42 149 94 170 94 4
0 7 -17 7 -37z m710 -16 c30 -18 100 -77 156 -132 87 -87 106 -113 147 -195
70 -144 91 -230 90 -375 0 -100 -5 -135 -27 -210 -67 -223 -220 -415 -401
-505 -44 -21 -92 -42 -106 -45 l-27 -7 4 64 c8 109 64 1345 64 1398 0 49 1 51
23 45 12 -4 47 -21 77 -38z"/>
<path d="M1713 13143 c-215 -240 -444 -556 -620 -853 -891 -1503 -1038 -3345
-398 -4975 153 -389 313 -698 550 -1055 732 -1107 1819 -1919 3085 -2304 1726
-525 3617 -194 5057 886 226 170 381 305 599 523 290 288 478 514 697 831 268
389 538 934 691 1394 196 589 289 1170 289 1805 0 909 -196 1742 -599 2546
-217 434 -553 929 -841 1238 l-48 52 -593 -3 -594 -3 104 -87 c532 -442 969
-997 1268 -1613 208 -429 350 -875 424 -1335 49 -301 60 -442 60 -790 0 -329
-7 -442 -45 -705 -237 -1649 -1312 -3068 -2839 -3748 -472 -210 -952 -338
-1495 -397 -160 -18 -650 -24 -825 -11 -1213 93 -2325 612 -3155 1473 -792
822 -1262 1862 -1355 2998 -23 284 -12 715 26 1015 158 1235 796 2367 1789
3172 l40 32 -597 1 -597 0 -78 -87z"/>
<path d="M2605 10566 c-77 -30 -282 -109 -455 -176 -173 -67 -387 -149 -475
-182 -168 -63 -214 -90 -246 -142 -51 -84 14 -186 120 -186 32 0 117 29 320
109 309 122 500 195 706 271 206 76 280 114 310 158 46 67 26 160 -40 188 -55
23 -92 17 -240 -40z"/>
<path d="M9133 10590 c-85 -52 -75 -160 20 -219 19 -11 225 -94 458 -185 234
-90 488 -189 564 -219 239 -96 306 -104 364 -47 67 68 40 169 -59 220 -30 15
-257 104 -770 300 -69 26 -165 65 -215 85 -212 89 -299 104 -362 65z"/>
<path d="M2840 10184 c-52 -19 -230 -86 -395 -149 -165 -62 -444 -168 -620
-234 -303 -114 -322 -123 -362 -165 -42 -44 -48 -62 -43 -126 3 -41 32 -79 75
-100 80 -39 -1 -65 1130 364 226 86 421 164 435 174 91 67 94 199 7 252 -48
30 -116 25 -227 -16z"/>
<path d="M8931 10198 c-80 -41 -100 -123 -51 -203 31 -51 46 -57 730 -315 162
-61 360 -137 440 -169 330 -133 412 -144 487 -64 27 28 33 42 33 80 0 92 -43
137 -178 188 -190 71 -982 375 -1057 405 -138 56 -244 89 -303 95 -48 5 -64 2
-101 -17z"/>
<path d="M2925 9726 c-144 -51 -245 -89 -558 -212 -143 -57 -444 -170 -657
-248 -137 -51 -176 -70 -213 -105 -41 -37 -57 -73 -57 -127 0 -90 62 -148 160
-149 45 0 95 15 285 88 127 48 472 179 768 291 556 211 578 221 613 288 20 38
17 107 -5 148 -23 44 -90 80 -145 79 -23 0 -108 -24 -191 -53z"/>
<path d="M8821 9767 c-55 -21 -109 -73 -117 -113 -9 -48 18 -115 64 -156 41
-37 266 -130 612 -254 169 -60 323 -118 775 -294 184 -72 252 -81 315 -44 57
33 83 80 78 141 -6 67 -38 110 -115 150 -32 17 -245 102 -473 188 -228 87
-550 209 -714 271 -165 63 -320 116 -345 119 -25 2 -61 -1 -80 -8z"/>
<path d="M3140 9291 c-94 -32 -542 -201 -930 -351 -41 -16 -174 -66 -295 -111
-121 -44 -246 -94 -277 -110 -159 -80 -157 -283 3 -331 60 -18 131 0 379 98
207 81 1016 390 1229 470 162 61 220 125 208 231 -6 57 -31 92 -87 121 -61 30
-97 28 -230 -17z"/>
<path d="M8641 9315 c-144 -46 -157 -213 -23 -302 27 -18 266 -114 564 -227
284 -108 612 -234 730 -280 313 -124 393 -140 474 -98 128 66 108 234 -38 308
-26 13 -227 92 -446 175 -599 227 -885 336 -1007 384 -128 50 -192 60 -254 40z"/>
<path d="M3455 8875 c-87 -19 -317 -100 -570 -200 -267 -105 -560 -217 -879
-336 -131 -49 -257 -100 -280 -113 -119 -70 -162 -190 -101 -282 20 -31 108
-74 151 -74 17 0 51 -7 75 -16 24 -9 100 -35 169 -59 69 -24 217 -76 330 -115
261 -92 286 -100 821 -269 483 -153 955 -320 1019 -361 46 -29 -31 -17 -268
43 -147 37 -295 70 -329 74 -159 15 -319 -62 -383 -187 -41 -81 -78 -286 -105
-595 -9 -93 -26 -255 -39 -360 -14 -104 -27 -230 -31 -280 l-6 -90 211 -135
c117 -74 269 -168 338 -208 262 -150 719 -369 932 -445 61 -22 219 -67 235
-67 35 0 224 1155 305 1860 45 397 51 748 16 889 -43 171 -141 293 -338 424
-199 131 -448 231 -901 362 -250 73 -249 73 -530 -14 -276 -86 -501 -152 -632
-185 -143 -35 -169 -40 -161 -28 9 15 119 59 428 171 501 182 668 250 708 292
33 35 60 98 60 142 0 78 -52 145 -128 167 -44 12 -41 12 -117 -5z"/>
<path d="M8407 8875 c-106 -37 -150 -152 -98 -253 26 -51 102 -104 206 -143
148 -56 547 -205 698 -260 269 -98 347 -148 152 -95 -145 39 -640 184 -771
227 -170 55 -192 54 -466 -25 -337 -98 -504 -159 -696 -255 -227 -114 -400
-261 -464 -393 -59 -120 -63 -152 -62 -463 0 -305 10 -433 70 -880 69 -520
236 -1510 258 -1533 7 -6 151 36 253 74 150 56 370 157 623 284 283 144 376
197 633 360 l197 125 -5 55 c-3 30 -16 161 -30 290 -13 129 -31 314 -40 410
-31 346 -60 513 -103 593 -56 105 -162 166 -302 174 -68 4 -103 -2 -358 -66
-155 -39 -292 -71 -302 -71 -42 0 -16 17 78 52 53 20 185 70 293 111 108 41
315 113 460 160 928 301 1146 374 1292 431 190 75 227 86 284 86 101 0 183 75
183 169 0 52 -12 81 -50 124 -43 49 -97 78 -284 148 -278 105 -992 377 -1210
461 -202 77 -336 118 -380 118 -12 -1 -38 -7 -59 -15z"/>
<path d="M2775 2380 c-338 -53 -594 -278 -710 -625 -112 -333 -109 -833 6
-1162 87 -249 222 -411 424 -508 147 -71 198 -80 435 -80 184 0 213 2 285 23
114 33 216 86 288 150 135 120 208 241 253 420 27 105 33 242 12 242 -7 0
-125 9 -262 20 -137 11 -250 19 -251 18 -1 -2 -6 -55 -12 -118 -24 -241 -91
-328 -266 -338 -101 -6 -151 13 -210 78 -50 56 -89 157 -106 280 -17 128 -23
386 -12 586 14 266 45 401 111 493 85 116 227 134 333 41 61 -54 91 -135 112
-307 l7 -53 284 0 284 0 0 65 c0 79 -22 192 -57 289 -106 298 -388 480 -763
491 -69 2 -152 0 -185 -5z"/>
<path d="M6638 2343 c-12 -3 -19 -19 -23 -56 -10 -87 1 -1543 13 -1652 20
-184 84 -328 197 -441 83 -84 173 -132 322 -170 93 -24 109 -25 313 -21 180 3
228 7 295 25 204 55 348 165 423 322 47 100 67 178 81 315 12 121 24 1373 15
1549 l-7 126 -254 0 -253 0 0 -817 c0 -872 -2 -898 -50 -992 -70 -138 -284
-159 -396 -39 -74 78 -69 4 -72 974 l-2 872 -23 6 c-25 7 -553 6 -579 -1z"/>
<path d="M10458 2343 c-17 -4 -18 -68 -18 -1154 l0 -1149 770 0 770 0 0 230 0
230 -422 2 c-233 1 -437 2 -454 3 l-31 0 -6 190 c-3 105 -3 210 0 235 l5 45
252 -3 c138 -2 275 -1 304 3 l52 6 0 225 0 224 -306 2 -306 3 1 225 0 224 443
1 c244 0 449 4 456 8 9 6 12 63 12 226 l0 219 -31 6 c-36 7 -1464 6 -1491 -1z"/>
<path d="M10 1190 l0 -1150 305 0 305 0 0 470 0 470 245 0 245 0 0 -470 0
-470 305 0 305 0 0 1150 0 1150 -305 0 -305 0 0 -445 0 -445 -245 0 -245 0 0
445 0 445 -305 0 -305 0 0 -1150z"/>
<path d="M4020 1190 l0 -1150 235 0 235 0 0 513 c0 283 3 671 7 863 l6 349 39
-165 c21 -91 79 -356 128 -590 102 -474 169 -772 201 -891 l21 -79 184 0 183
0 11 38 c5 20 40 154 76 297 117 466 335 1309 338 1312 10 10 16 -358 16 -959
l0 -688 305 0 305 0 0 1023 c0 562 -3 1079 -7 1150 l-6 127 -413 0 -413 0 -9
-32 c-5 -18 -76 -302 -158 -630 -81 -328 -152 -594 -155 -592 -12 7 -44 154
-154 709 -57 289 -107 530 -110 535 -4 6 -172 10 -436 10 l-429 0 0 -1150z"/>
<path d="M8422 2118 l3 -223 278 -3 277 -2 0 -925 0 -925 305 0 305 0 0 925 0
925 275 0 275 0 0 164 c0 89 -3 191 -6 225 l-7 61 -854 0 -853 0 2 -222z"/>
</g>
</svg>
